<svg width="250" height="250" viewBox="0 0 250 250" fill="none" xmlns="http://www.w3.org/2000/svg">
<path d="M11 20H197C199.761 20 202 22.2386 202 25V29C202 34.5228 197.523 39 192 39H11V20Z" fill="#B60000"/>
<path d="M11 48H192.5C197.747 48 202 52.2533 202 57.5C202 62.7467 197.747 67 192.5 67H11V48Z" fill="#DFAE00"/>
<path d="M11 76H192.5C197.747 76 202 80.2533 202 85.5C202 90.7467 197.747 95 192.5 95H11V76Z" fill="#239806"/>
<path d="M11 104H192.5C197.747 104 202 108.253 202 113.5C202 118.747 197.747 123 192.5 123H11V104Z" fill="#8F00FF"/>
<path d="M11 132H192.5C197.747 132 202 136.253 202 141.5C202 146.747 197.747 151 192.5 151H11V132Z" fill="#2F37F5"/>
<path d="M11 160H192.5C197.747 160 202 164.253 202 169.5C202 174.747 197.747 179 192.5 179H11V160Z" fill="#DC6A00"/>
<path d="M11 188H192.5C197.747 188 202 192.253 202 197.5C202 202.747 197.747 207 192.5 207H11V188Z" fill="#E800B5"/>
<path d="M11 216H192C197.523 216 202 220.477 202 226V230C202 232.761 199.761 235 197 235H11V216Z" fill="white"/>
</svg>
