<svg width="250" height="250" viewBox="0 0 250 250" fill="none" xmlns="http://www.w3.org/2000/svg">
<g clip-path="url(#clip0_27_58)">
<path d="M-66 20H120C122.761 20 125 22.2386 125 25V29C125 34.5228 120.523 39 115 39H-66V20Z" fill="#B60000"/>
<path d="M-29 48H152.5C157.747 48 162 52.2533 162 57.5V57.5C162 62.7467 157.747 67 152.5 67H-29V48Z" fill="#DFAE00"/>
<path d="M-7 76H174.5C179.747 76 184 80.2533 184 85.5V85.5C184 90.7467 179.747 95 174.5 95H-7V76Z" fill="#239806"/>
<path d="M0 104H192.5C197.747 104 202 108.253 202 113.5V113.5C202 118.747 197.747 123 192.5 123H0V104Z" fill="#8F00FF"/>
<path d="M0 132H192.5C197.747 132 202 136.253 202 141.5V141.5C202 146.747 197.747 151 192.5 151H0V132Z" fill="#2F37F5"/>
<path d="M-7 160H174.5C179.747 160 184 164.253 184 169.5V169.5C184 174.747 179.747 179 174.5 179H-7V160Z" fill="#DC6A00"/>
<path d="M-29 188H152.5C157.747 188 162 192.253 162 197.5V197.5C162 202.747 157.747 207 152.5 207H-29V188Z" fill="#E800B5"/>
<path d="M-66 216H115C120.523 216 125 220.477 125 226V230C125 232.761 122.761 235 120 235H-66V216Z" fill="white"/>
</g>
<defs>
<clipPath id="clip0_27_58">
<rect width="250" height="250" fill="white"/>
</clipPath>
</defs>
</svg>
